<mxfile host="Electron" modified="2024-07-02T14:14:11.959Z" agent="Mozilla/5.0 (Windows NT 10.0; Win64; x64) AppleWebKit/537.36 (KHTML, like Gecko) draw.io/24.5.3 Chrome/124.0.6367.207 Electron/30.0.6 Safari/537.36" etag="L2P1Vo3IcCR9uftu_0wx" version="24.5.3" type="device" pages="4">
  <diagram id="rnjncR1kO8L-PxKb0LtQ" name="Level1-SystemContextDiagram">
    <mxGraphModel dx="1562" dy="909" grid="1" gridSize="10" guides="1" tooltips="1" connect="1" arrows="1" fold="1" page="1" pageScale="1" pageWidth="827" pageHeight="1169" math="0" shadow="0">
      <root>
        <mxCell id="0" />
        <mxCell id="1" parent="0" />
      </root>
    </mxGraphModel>
  </diagram>
  <diagram name="Level2-ContainerDiagram" id="Kt2atR-wp4upHXA84t6S">
    <mxGraphModel dx="3728" dy="1152" grid="1" gridSize="10" guides="1" tooltips="1" connect="1" arrows="1" fold="1" page="1" pageScale="1" pageWidth="827" pageHeight="1169" math="0" shadow="0">
      <root>
        <mxCell id="0" />
        <mxCell id="1" parent="0" />
        <object placeholders="1" c4Type="knowledgebase" c4Container="Container" c4Technology="graphdb" c4Description="OWL Knowledgebase with pre-loaded named graphs:&#xa;* http://w3id.org/explainability/graph/ontology&#xa;* http://w3id.org/explainability/graph/{config[&quot;systemName&quot;]}_static&#xa;* http://w3id.org/explainability/graph/{config[&quot;systemName&quot;]}_dynamic" label="&lt;font style=&quot;font-size: 16px&quot;&gt;&lt;b&gt;%c4Type%&lt;/b&gt;&lt;/font&gt;&lt;div&gt;[%c4Container%:&amp;nbsp;%c4Technology%]&lt;/div&gt;&lt;br&gt;&lt;div&gt;&lt;font style=&quot;font-size: 11px&quot;&gt;&lt;font color=&quot;#E6E6E6&quot;&gt;%c4Description%&lt;/font&gt;&lt;/div&gt;" id="ckn-HUOmX8fZDXO7TGun-1">
          <mxCell style="shape=cylinder3;size=15;whiteSpace=wrap;html=1;boundedLbl=1;rounded=0;labelBackgroundColor=none;fillColor=#23A2D9;fontSize=12;fontColor=#ffffff;align=center;strokeColor=#0E7DAD;metaEdit=1;points=[[0.5,0,0],[1,0.25,0],[1,0.5,0],[1,0.75,0],[0.5,1,0],[0,0.75,0],[0,0.5,0],[0,0.25,0]];resizable=1;movable=1;rotatable=1;deletable=1;editable=1;locked=0;connectable=1;" parent="1" vertex="1">
            <mxGeometry x="-870" y="620" width="350" height="185" as="geometry" />
          </mxCell>
        </object>
        <object placeholders="1" c4Name="data-ingestion" c4Type="Container" c4Technology="InfluxDB, line protocol, flux" c4Description="ingests data from the CPS into the SENSE system by sending it to the data-and-event-broker" label="&lt;font style=&quot;font-size: 16px&quot;&gt;&lt;b&gt;%c4Name%&lt;/b&gt;&lt;/font&gt;&lt;div&gt;[%c4Type%: %c4Technology%]&lt;/div&gt;&lt;br&gt;&lt;div&gt;&lt;font style=&quot;font-size: 11px&quot;&gt;&lt;font color=&quot;#E6E6E6&quot;&gt;%c4Description%&lt;/font&gt;&lt;/div&gt;" id="ckn-HUOmX8fZDXO7TGun-2">
          <mxCell style="rounded=1;whiteSpace=wrap;html=1;fontSize=11;labelBackgroundColor=none;fillColor=#23A2D9;fontColor=#ffffff;align=center;arcSize=10;strokeColor=#0E7DAD;metaEdit=1;resizable=0;points=[[0.25,0,0],[0.5,0,0],[0.75,0,0],[1,0.25,0],[1,0.5,0],[1,0.75,0],[0.75,1,0],[0.5,1,0],[0.25,1,0],[0,0.75,0],[0,0.5,0],[0,0.25,0]];" parent="1" vertex="1">
            <mxGeometry x="-940" y="920" width="240" height="120" as="geometry" />
          </mxCell>
        </object>
        <object placeholders="1" c4Name="data-and-event-broker" c4Type="Container" c4Technology="eclipse-mosquitto" c4Description="MQTT broker for semantic (RDF-encoded) data and events" label="&lt;font style=&quot;font-size: 16px&quot;&gt;&lt;b&gt;%c4Name%&lt;/b&gt;&lt;/font&gt;&lt;div&gt;[%c4Type%: %c4Technology%]&lt;/div&gt;&lt;br&gt;&lt;div&gt;&lt;font style=&quot;font-size: 11px&quot;&gt;&lt;font color=&quot;#E6E6E6&quot;&gt;%c4Description%&lt;/font&gt;&lt;/div&gt;" id="ckn-HUOmX8fZDXO7TGun-3">
          <mxCell style="rounded=1;whiteSpace=wrap;html=1;fontSize=11;labelBackgroundColor=none;fillColor=#23A2D9;fontColor=#ffffff;align=center;arcSize=10;strokeColor=#0E7DAD;metaEdit=1;resizable=0;points=[[0.25,0,0],[0.5,0,0],[0.75,0,0],[1,0.25,0],[1,0.5,0],[1,0.75,0],[0.75,1,0],[0.5,1,0],[0.25,1,0],[0,0.75,0],[0,0.5,0],[0,0.25,0]];" parent="1" vertex="1">
            <mxGeometry x="-800" y="464.5" width="240" height="120" as="geometry" />
          </mxCell>
        </object>
        <object placeholders="1" c4Type="Relationship" c4Technology="MQTT" c4Description="Sensor Observation" label="&lt;div style=&quot;text-align: left&quot;&gt;&lt;div style=&quot;text-align: center&quot;&gt;&lt;b&gt;%c4Description%&lt;/b&gt;&lt;/div&gt;&lt;div style=&quot;text-align: center&quot;&gt;[%c4Technology%]&lt;/div&gt;&lt;/div&gt;" id="ckn-HUOmX8fZDXO7TGun-4">
          <mxCell style="endArrow=blockThin;html=1;fontSize=10;fontColor=#404040;strokeWidth=1;endFill=1;strokeColor=#828282;elbow=vertical;metaEdit=1;endSize=14;startSize=14;jumpStyle=arc;jumpSize=16;rounded=0;edgeStyle=orthogonalEdgeStyle;entryX=0;entryY=0.5;entryDx=0;entryDy=0;entryPerimeter=0;exitX=0.25;exitY=0;exitDx=0;exitDy=0;exitPerimeter=0;" parent="1" source="ckn-HUOmX8fZDXO7TGun-2" target="ckn-HUOmX8fZDXO7TGun-3" edge="1">
            <mxGeometry x="-0.5482" y="-10" width="240" relative="1" as="geometry">
              <mxPoint x="-360" y="740" as="sourcePoint" />
              <mxPoint x="150" y="740" as="targetPoint" />
              <Array as="points">
                <mxPoint x="-880" y="860" />
                <mxPoint x="-930" y="860" />
                <mxPoint x="-930" y="525" />
              </Array>
              <mxPoint as="offset" />
            </mxGeometry>
          </mxCell>
        </object>
        <object placeholders="1" c4Name="SENSE Core" c4Type="SystemScopeBoundary" c4Application="SENSE Event Detection and Explanation" label="&lt;font style=&quot;font-size: 16px&quot;&gt;&lt;b&gt;&lt;div style=&quot;text-align: left&quot;&gt;%c4Name%&lt;/div&gt;&lt;/b&gt;&lt;/font&gt;&lt;div style=&quot;text-align: left&quot;&gt;[%c4Application%]&lt;/div&gt;" id="ckn-HUOmX8fZDXO7TGun-5">
          <mxCell style="rounded=1;fontSize=11;whiteSpace=wrap;html=1;dashed=1;arcSize=20;fillColor=none;strokeColor=#666666;fontColor=#333333;labelBackgroundColor=none;align=left;verticalAlign=bottom;labelBorderColor=none;spacingTop=0;spacing=10;metaEdit=1;rotatable=0;perimeter=rectanglePerimeter;noLabel=0;labelPadding=0;allowArrows=0;connectable=0;expand=0;recursiveResize=0;editable=1;pointerEvents=0;absoluteArcSize=1;points=[[0.25,0,0],[0.5,0,0],[0.75,0,0],[1,0.25,0],[1,0.5,0],[1,0.75,0],[0.75,1,0],[0.5,1,0],[0.25,1,0],[0,0.75,0],[0,0.5,0],[0,0.25,0]];strokeWidth=5;" parent="1" vertex="1">
            <mxGeometry x="-1210" y="240" width="1090" height="840" as="geometry" />
          </mxCell>
        </object>
        <mxCell id="ckn-HUOmX8fZDXO7TGun-6" value="SENSE Core" style="shape=note;strokeWidth=2;fontSize=14;size=20;whiteSpace=wrap;html=1;fillColor=#fff2cc;strokeColor=#d6b656;fontColor=#666600;" parent="1" vertex="1">
          <mxGeometry x="-230" y="200" width="110.00000000000001" height="80" as="geometry" />
        </mxCell>
        <object placeholders="1" c4Name="simple-event-detection" c4Type="Container" c4Technology="python, STL" c4Description="identifies simple events by analyzing the data stream provided by the data-ingestion" label="&lt;font style=&quot;font-size: 16px&quot;&gt;&lt;b&gt;%c4Name%&lt;/b&gt;&lt;/font&gt;&lt;div&gt;[%c4Type%: %c4Technology%]&lt;/div&gt;&lt;br&gt;&lt;div&gt;&lt;font style=&quot;font-size: 11px&quot;&gt;&lt;font color=&quot;#E6E6E6&quot;&gt;%c4Description%&lt;/font&gt;&lt;/div&gt;" id="ckn-HUOmX8fZDXO7TGun-7">
          <mxCell style="rounded=1;whiteSpace=wrap;html=1;fontSize=11;labelBackgroundColor=none;fillColor=#23A2D9;fontColor=#ffffff;align=center;arcSize=10;strokeColor=#0E7DAD;metaEdit=1;resizable=0;points=[[0.25,0,0],[0.5,0,0],[0.75,0,0],[1,0.25,0],[1,0.5,0],[1,0.75,0],[0.75,1,0],[0.5,1,0],[0.25,1,0],[0,0.75,0],[0,0.5,0],[0,0.25,0]];" parent="1" vertex="1">
            <mxGeometry x="-800" y="270" width="240" height="120" as="geometry" />
          </mxCell>
        </object>
        <object placeholders="1" c4Type="Relationship" c4Technology="MQTT" c4Description="Sensor Observation" label="&lt;div style=&quot;text-align: left&quot;&gt;&lt;div style=&quot;text-align: center&quot;&gt;&lt;b&gt;%c4Description%&lt;/b&gt;&lt;/div&gt;&lt;div style=&quot;text-align: center&quot;&gt;[%c4Technology%]&lt;/div&gt;&lt;/div&gt;" id="ckn-HUOmX8fZDXO7TGun-8">
          <mxCell style="endArrow=blockThin;html=1;fontSize=10;fontColor=#404040;strokeWidth=1;endFill=1;strokeColor=#828282;elbow=vertical;metaEdit=1;endSize=14;startSize=14;jumpStyle=arc;jumpSize=16;rounded=0;edgeStyle=orthogonalEdgeStyle;entryX=0.25;entryY=1;entryDx=0;entryDy=0;entryPerimeter=0;exitX=0.25;exitY=0;exitDx=0;exitDy=0;exitPerimeter=0;" parent="1" source="ckn-HUOmX8fZDXO7TGun-3" target="ckn-HUOmX8fZDXO7TGun-7" edge="1">
            <mxGeometry x="-0.0026" width="240" relative="1" as="geometry">
              <mxPoint x="-740" y="460" as="sourcePoint" />
              <mxPoint x="-670" y="595" as="targetPoint" />
              <Array as="points" />
              <mxPoint as="offset" />
            </mxGeometry>
          </mxCell>
        </object>
        <mxCell id="ckn-HUOmX8fZDXO7TGun-12" value="" style="shape=table;html=1;whiteSpace=wrap;startSize=0;container=1;collapsible=0;childLayout=tableLayout;fillColor=none;align=left;spacingLeft=10;strokeColor=none;rounded=1;arcSize=11;fontColor=#FFFFFF;resizable=0;points=[[0.25,0,0],[0.5,0,0],[0.75,0,0],[1,0.25,0],[1,0.5,0],[1,0.75,0],[0.75,1,0],[0.5,1,0],[0.25,1,0],[0,0.75,0],[0,0.5,0],[0,0.25,0]];" parent="1" vertex="1">
          <mxGeometry x="-1410" y="220" width="180" height="180" as="geometry" />
        </mxCell>
        <mxCell id="ckn-HUOmX8fZDXO7TGun-13" value="Person" style="shape=partialRectangle;html=1;whiteSpace=wrap;connectable=0;fillColor=#1E4074;top=0;left=0;bottom=0;right=0;overflow=hidden;pointerEvents=1;align=left;spacingLeft=10;strokeColor=none;fontColor=#FFFFFF;" parent="ckn-HUOmX8fZDXO7TGun-12" vertex="1">
          <mxGeometry width="180" height="30" as="geometry" />
        </mxCell>
        <mxCell id="ckn-HUOmX8fZDXO7TGun-14" value="Software System" style="shape=partialRectangle;html=1;whiteSpace=wrap;connectable=0;fillColor=#3162AF;top=0;left=0;bottom=0;right=0;overflow=hidden;pointerEvents=1;align=left;spacingLeft=10;fontColor=#FFFFFF;" parent="ckn-HUOmX8fZDXO7TGun-12" vertex="1">
          <mxGeometry y="30" width="180" height="30" as="geometry" />
        </mxCell>
        <mxCell id="ckn-HUOmX8fZDXO7TGun-15" value="Container" style="shape=partialRectangle;html=1;whiteSpace=wrap;connectable=0;fillColor=#52A2D8;top=0;left=0;bottom=0;right=0;overflow=hidden;pointerEvents=1;align=left;spacingLeft=10;fontColor=#FFFFFF;" parent="ckn-HUOmX8fZDXO7TGun-12" vertex="1">
          <mxGeometry y="60" width="180" height="30" as="geometry" />
        </mxCell>
        <mxCell id="ckn-HUOmX8fZDXO7TGun-16" value="Component" style="shape=partialRectangle;html=1;whiteSpace=wrap;connectable=0;fillColor=#7CBEF1;top=0;left=0;bottom=0;right=0;overflow=hidden;pointerEvents=1;align=left;spacingLeft=10;fontColor=#FFFFFF;" parent="ckn-HUOmX8fZDXO7TGun-12" vertex="1">
          <mxGeometry y="90" width="180" height="30" as="geometry" />
        </mxCell>
        <mxCell id="ckn-HUOmX8fZDXO7TGun-17" value="External Person" style="shape=partialRectangle;html=1;whiteSpace=wrap;connectable=0;fillColor=#6B6477;top=0;left=0;bottom=0;right=0;overflow=hidden;pointerEvents=1;align=left;spacingLeft=10;fontColor=#FFFFFF;" parent="ckn-HUOmX8fZDXO7TGun-12" vertex="1">
          <mxGeometry y="120" width="180" height="30" as="geometry" />
        </mxCell>
        <mxCell id="ckn-HUOmX8fZDXO7TGun-18" value="External Software System" style="shape=partialRectangle;html=1;whiteSpace=wrap;connectable=0;fillColor=#8B8496;top=0;left=0;bottom=0;right=0;overflow=hidden;pointerEvents=1;align=left;spacingLeft=10;fontColor=#FFFFFF;" parent="ckn-HUOmX8fZDXO7TGun-12" vertex="1">
          <mxGeometry y="150" width="180" height="30" as="geometry" />
        </mxCell>
        <object placeholders="1" c4Name="event-to-state-causality" c4Type="Container" c4Technology="java" c4Description="" label="&lt;font style=&quot;font-size: 16px&quot;&gt;&lt;b&gt;%c4Name%&lt;/b&gt;&lt;/font&gt;&lt;div&gt;[%c4Type%: %c4Technology%]&lt;/div&gt;&lt;br&gt;&lt;div&gt;&lt;font style=&quot;font-size: 11px&quot;&gt;&lt;font color=&quot;#E6E6E6&quot;&gt;%c4Description%&lt;/font&gt;&lt;/div&gt;" id="ckn-HUOmX8fZDXO7TGun-19">
          <mxCell style="rounded=1;whiteSpace=wrap;html=1;fontSize=11;labelBackgroundColor=none;fillColor=#23A2D9;fontColor=#ffffff;align=center;arcSize=10;strokeColor=#0E7DAD;metaEdit=1;resizable=0;points=[[0.25,0,0],[0.5,0,0],[0.75,0,0],[1,0.25,0],[1,0.5,0],[1,0.75,0],[0.75,1,0],[0.5,1,0],[0.25,1,0],[0,0.75,0],[0,0.5,0],[0,0.25,0]];" parent="1" vertex="1">
            <mxGeometry x="-390" y="685" width="240" height="120" as="geometry" />
          </mxCell>
        </object>
        <object placeholders="1" c4Type="Relationship" c4Technology="MQTT" c4Description="Event" label="&lt;div style=&quot;text-align: left&quot;&gt;&lt;div style=&quot;text-align: center&quot;&gt;&lt;b&gt;%c4Description%&lt;/b&gt;&lt;/div&gt;&lt;div style=&quot;text-align: center&quot;&gt;[%c4Technology%]&lt;/div&gt;&lt;/div&gt;" id="ckn-HUOmX8fZDXO7TGun-21">
          <mxCell style="endArrow=blockThin;html=1;fontSize=10;fontColor=#404040;strokeWidth=1;endFill=1;strokeColor=#828282;elbow=vertical;metaEdit=1;endSize=14;startSize=14;jumpStyle=arc;jumpSize=16;rounded=0;edgeStyle=orthogonalEdgeStyle;entryX=0.75;entryY=0;entryDx=0;entryDy=0;entryPerimeter=0;exitX=0.75;exitY=1;exitDx=0;exitDy=0;exitPerimeter=0;" parent="1" source="ckn-HUOmX8fZDXO7TGun-7" target="ckn-HUOmX8fZDXO7TGun-3" edge="1">
            <mxGeometry width="240" relative="1" as="geometry">
              <mxPoint x="-730" y="475" as="sourcePoint" />
              <mxPoint x="-890" y="390" as="targetPoint" />
              <Array as="points" />
            </mxGeometry>
          </mxCell>
        </object>
        <object placeholders="1" c4Name="semantic-event-log-bridge" c4Type="Container" c4Technology="python" c4Description="" label="&lt;font style=&quot;font-size: 16px&quot;&gt;&lt;b&gt;%c4Name%&lt;/b&gt;&lt;/font&gt;&lt;div&gt;[%c4Type%: %c4Technology%]&lt;/div&gt;&lt;br&gt;&lt;div&gt;&lt;font style=&quot;font-size: 11px&quot;&gt;&lt;font color=&quot;#E6E6E6&quot;&gt;%c4Description%&lt;/font&gt;&lt;/div&gt;" id="ckn-HUOmX8fZDXO7TGun-22">
          <mxCell style="rounded=1;whiteSpace=wrap;html=1;fontSize=11;labelBackgroundColor=none;fillColor=#23A2D9;fontColor=#ffffff;align=center;arcSize=10;strokeColor=#0E7DAD;metaEdit=1;resizable=0;points=[[0.25,0,0],[0.5,0,0],[0.75,0,0],[1,0.25,0],[1,0.5,0],[1,0.75,0],[0.75,1,0],[0.5,1,0],[0.25,1,0],[0,0.75,0],[0,0.5,0],[0,0.25,0]];" parent="1" vertex="1">
            <mxGeometry x="-390" y="465" width="240" height="120" as="geometry" />
          </mxCell>
        </object>
        <object placeholders="1" c4Type="Relationship" c4Technology="MQTT" c4Description="Event" label="&lt;div style=&quot;text-align: left&quot;&gt;&lt;div style=&quot;text-align: center&quot;&gt;&lt;b&gt;%c4Description%&lt;/b&gt;&lt;/div&gt;&lt;div style=&quot;text-align: center&quot;&gt;[%c4Technology%]&lt;/div&gt;&lt;/div&gt;" id="ckn-HUOmX8fZDXO7TGun-24">
          <mxCell style="endArrow=blockThin;html=1;fontSize=10;fontColor=#404040;strokeWidth=1;endFill=1;strokeColor=#828282;elbow=vertical;metaEdit=1;endSize=14;startSize=14;jumpStyle=arc;jumpSize=16;rounded=0;edgeStyle=orthogonalEdgeStyle;exitX=1;exitY=0.5;exitDx=0;exitDy=0;exitPerimeter=0;" parent="1" source="ckn-HUOmX8fZDXO7TGun-3" target="ckn-HUOmX8fZDXO7TGun-22" edge="1">
            <mxGeometry width="240" relative="1" as="geometry">
              <mxPoint x="-610" y="475" as="sourcePoint" />
              <mxPoint x="-450" y="390" as="targetPoint" />
              <Array as="points" />
            </mxGeometry>
          </mxCell>
        </object>
        <object placeholders="1" c4Type="Relationship" c4Technology="SPARQL" c4Description="Event" label="&lt;div style=&quot;text-align: left&quot;&gt;&lt;div style=&quot;text-align: center&quot;&gt;&lt;b&gt;%c4Description%&lt;/b&gt;&lt;/div&gt;&lt;div style=&quot;text-align: center&quot;&gt;[%c4Technology%]&lt;/div&gt;&lt;/div&gt;" id="ckn-HUOmX8fZDXO7TGun-25">
          <mxCell style="endArrow=blockThin;html=1;fontSize=10;fontColor=#404040;strokeWidth=1;endFill=1;strokeColor=#828282;elbow=vertical;metaEdit=1;endSize=14;startSize=14;jumpStyle=arc;jumpSize=16;rounded=0;edgeStyle=orthogonalEdgeStyle;exitX=0.5;exitY=1;exitDx=0;exitDy=0;exitPerimeter=0;entryX=1;entryY=0.25;entryDx=0;entryDy=0;entryPerimeter=0;" parent="1" source="ckn-HUOmX8fZDXO7TGun-22" target="ckn-HUOmX8fZDXO7TGun-1" edge="1">
            <mxGeometry x="-0.7283" width="240" relative="1" as="geometry">
              <mxPoint x="-550" y="535" as="sourcePoint" />
              <mxPoint x="-380" y="535" as="targetPoint" />
              <Array as="points" />
              <mxPoint as="offset" />
            </mxGeometry>
          </mxCell>
        </object>
        <object placeholders="1" c4Type="Relationship" c4Technology="SPARQL" c4Description="Event" label="&lt;div style=&quot;text-align: left&quot;&gt;&lt;div style=&quot;text-align: center&quot;&gt;&lt;b&gt;%c4Description%&lt;/b&gt;&lt;/div&gt;&lt;div style=&quot;text-align: center&quot;&gt;[%c4Technology%]&lt;/div&gt;&lt;/div&gt;" id="ckn-HUOmX8fZDXO7TGun-26">
          <mxCell style="endArrow=blockThin;html=1;fontSize=10;fontColor=#404040;strokeWidth=1;endFill=1;strokeColor=#828282;elbow=vertical;metaEdit=1;endSize=14;startSize=14;jumpStyle=arc;jumpSize=16;rounded=0;edgeStyle=orthogonalEdgeStyle;exitX=1;exitY=0.5;exitDx=0;exitDy=0;exitPerimeter=0;entryX=0;entryY=0.25;entryDx=0;entryDy=0;entryPerimeter=0;" parent="1" source="ckn-HUOmX8fZDXO7TGun-1" target="ckn-HUOmX8fZDXO7TGun-19" edge="1">
            <mxGeometry width="240" relative="1" as="geometry">
              <mxPoint x="-150" y="743" as="sourcePoint" />
              <mxPoint x="-500" y="850" as="targetPoint" />
              <Array as="points" />
            </mxGeometry>
          </mxCell>
        </object>
        <object placeholders="1" c4Type="Relationship" c4Technology="SPARQL" c4Description="State" label="&lt;div style=&quot;text-align: left&quot;&gt;&lt;div style=&quot;text-align: center&quot;&gt;&lt;b&gt;%c4Description%&lt;/b&gt;&lt;/div&gt;&lt;div style=&quot;text-align: center&quot;&gt;[%c4Technology%]&lt;/div&gt;&lt;/div&gt;" id="ckn-HUOmX8fZDXO7TGun-27">
          <mxCell style="endArrow=blockThin;html=1;fontSize=10;fontColor=#404040;strokeWidth=1;endFill=1;strokeColor=#828282;elbow=vertical;metaEdit=1;endSize=14;startSize=14;jumpStyle=arc;jumpSize=16;rounded=0;edgeStyle=orthogonalEdgeStyle;exitX=0;exitY=0.75;exitDx=0;exitDy=0;exitPerimeter=0;entryX=1;entryY=0.75;entryDx=0;entryDy=0;entryPerimeter=0;" parent="1" source="ckn-HUOmX8fZDXO7TGun-19" target="ckn-HUOmX8fZDXO7TGun-1" edge="1">
            <mxGeometry width="240" relative="1" as="geometry">
              <mxPoint x="-439" y="929" as="sourcePoint" />
              <mxPoint x="-400" y="980" as="targetPoint" />
              <Array as="points" />
            </mxGeometry>
          </mxCell>
        </object>
        <object placeholders="1" c4Name="explanation-generation" c4Type="Container" c4Technology="python" c4Description="generates explanations for the current system state, may be triggered by trigger events " label="&lt;font style=&quot;font-size: 16px&quot;&gt;&lt;b&gt;%c4Name%&lt;/b&gt;&lt;/font&gt;&lt;div&gt;[%c4Type%: %c4Technology%]&lt;/div&gt;&lt;br&gt;&lt;div&gt;&lt;font style=&quot;font-size: 11px&quot;&gt;&lt;font color=&quot;#E6E6E6&quot;&gt;%c4Description%&lt;/font&gt;&lt;/div&gt;" id="ckn-HUOmX8fZDXO7TGun-29">
          <mxCell style="rounded=1;whiteSpace=wrap;html=1;fontSize=11;labelBackgroundColor=none;fillColor=#23A2D9;align=center;arcSize=10;strokeColor=#0E7DAD;metaEdit=1;resizable=0;points=[[0.25,0,0],[0.5,0,0],[0.75,0,0],[1,0.25,0],[1,0.5,0],[1,0.75,0],[0.75,1,0],[0.5,1,0],[0.25,1,0],[0,0.75,0],[0,0.5,0],[0,0.25,0]];fontColor=#ffffff;verticalAlign=middle;fontFamily=Helvetica;" parent="1" vertex="1">
            <mxGeometry x="-390" y="850" width="240" height="120" as="geometry" />
          </mxCell>
        </object>
        <object placeholders="1" c4Type="Relationship" c4Technology="SPARQL" c4Description="Explanation" label="&lt;div style=&quot;text-align: left&quot;&gt;&lt;div style=&quot;text-align: center&quot;&gt;&lt;b&gt;%c4Description%&lt;/b&gt;&lt;/div&gt;&lt;div style=&quot;text-align: center&quot;&gt;[%c4Technology%]&lt;/div&gt;&lt;/div&gt;" id="ckn-HUOmX8fZDXO7TGun-30">
          <mxCell style="endArrow=blockThin;html=1;fontSize=10;fontColor=#404040;strokeWidth=1;endFill=1;strokeColor=#828282;elbow=vertical;metaEdit=1;endSize=14;startSize=14;jumpStyle=arc;jumpSize=16;rounded=0;edgeStyle=orthogonalEdgeStyle;exitX=0.5;exitY=1;exitDx=0;exitDy=0;exitPerimeter=0;" parent="1" source="ckn-HUOmX8fZDXO7TGun-1" target="ckn-HUOmX8fZDXO7TGun-29" edge="1">
            <mxGeometry width="240" relative="1" as="geometry">
              <mxPoint x="-240" y="990" as="sourcePoint" />
              <mxPoint x="-440" y="980" as="targetPoint" />
              <Array as="points">
                <mxPoint x="-665" y="930" />
              </Array>
            </mxGeometry>
          </mxCell>
        </object>
        <object placeholders="1" c4Type="Relationship" c4Technology="SPARQL" c4Description="Sensor, Measurement, Tag" label="&lt;div style=&quot;text-align: left&quot;&gt;&lt;div style=&quot;text-align: center&quot;&gt;&lt;b&gt;%c4Description%&lt;/b&gt;&lt;/div&gt;&lt;div style=&quot;text-align: center&quot;&gt;[%c4Technology%]&lt;/div&gt;&lt;/div&gt;" id="ckn-HUOmX8fZDXO7TGun-31">
          <mxCell style="endArrow=blockThin;html=1;fontSize=10;fontColor=#404040;strokeWidth=1;endFill=1;strokeColor=#828282;elbow=vertical;metaEdit=1;endSize=14;startSize=14;jumpStyle=arc;jumpSize=16;rounded=0;edgeStyle=orthogonalEdgeStyle;exitX=0.171;exitY=0.975;exitDx=0;exitDy=0;exitPerimeter=0;entryX=0.75;entryY=0;entryDx=0;entryDy=0;entryPerimeter=0;" parent="1" source="ckn-HUOmX8fZDXO7TGun-1" target="ckn-HUOmX8fZDXO7TGun-2" edge="1">
            <mxGeometry width="240" relative="1" as="geometry">
              <mxPoint x="-440" y="950" as="sourcePoint" />
              <mxPoint x="-810" y="720" as="targetPoint" />
            </mxGeometry>
          </mxCell>
        </object>
        <object placeholders="1" c4Type="time-series database" c4Container="Container" c4Technology="Influx" c4Description="OWL Ontology" label="&lt;font style=&quot;font-size: 16px&quot;&gt;&lt;b&gt;%c4Type%&lt;/b&gt;&lt;/font&gt;&lt;div&gt;[%c4Container%:&amp;nbsp;%c4Technology%]&lt;/div&gt;&lt;br&gt;&lt;div&gt;&lt;font style=&quot;font-size: 11px&quot;&gt;&lt;font color=&quot;#E6E6E6&quot;&gt;%c4Description%&lt;/font&gt;&lt;/div&gt;" id="ckn-HUOmX8fZDXO7TGun-33">
          <mxCell style="shape=cylinder3;size=15;whiteSpace=wrap;html=1;boundedLbl=1;rounded=1;labelBackgroundColor=none;fillColor=#8C8496;fontSize=12;fontColor=#ffffff;align=center;strokeColor=#736782;metaEdit=1;points=[[0.5,0,0],[1,0.25,0],[1,0.5,0],[1,0.75,0],[0.5,1,0],[0,0.75,0],[0,0.5,0],[0,0.25,0]];resizable=0;verticalAlign=middle;arcSize=10;fontFamily=Helvetica;" parent="1" vertex="1">
            <mxGeometry x="-940" y="1155" width="240" height="120" as="geometry" />
          </mxCell>
        </object>
        <object placeholders="1" c4Type="Relationship" c4Technology="file access, volume mount" c4Description="use-case-specific semantic data" label="&lt;div style=&quot;text-align: left&quot;&gt;&lt;div style=&quot;text-align: center&quot;&gt;&lt;b&gt;%c4Description%&lt;/b&gt;&lt;/div&gt;&lt;div style=&quot;text-align: center&quot;&gt;[%c4Technology%]&lt;/div&gt;&lt;/div&gt;" id="ckn-HUOmX8fZDXO7TGun-43">
          <mxCell style="endArrow=blockThin;html=1;fontSize=10;fontColor=#404040;strokeWidth=1;endFill=1;strokeColor=#828282;elbow=vertical;metaEdit=1;endSize=14;startSize=14;jumpStyle=arc;jumpSize=16;rounded=0;edgeStyle=orthogonalEdgeStyle;exitX=1;exitY=0.5;exitDx=0;exitDy=0;entryX=0;entryY=0.25;entryDx=0;entryDy=0;entryPerimeter=0;" parent="1" source="AaPUc0bWfRbjgrLykp2q-6" target="ckn-HUOmX8fZDXO7TGun-1" edge="1">
            <mxGeometry width="240" relative="1" as="geometry">
              <mxPoint x="-1460" y="700" as="sourcePoint" />
              <mxPoint x="-1190" y="730" as="targetPoint" />
            </mxGeometry>
          </mxCell>
        </object>
        <object placeholders="1" c4Type="Relationship" c4Technology="Line Protocol" c4Description="Sensor Data" label="&lt;div style=&quot;text-align: left&quot;&gt;&lt;div style=&quot;text-align: center&quot;&gt;&lt;b&gt;%c4Description%&lt;/b&gt;&lt;/div&gt;&lt;div style=&quot;text-align: center&quot;&gt;[%c4Technology%]&lt;/div&gt;&lt;/div&gt;" id="AaPUc0bWfRbjgrLykp2q-2">
          <mxCell style="endArrow=blockThin;html=1;fontSize=10;fontColor=#404040;strokeWidth=1;endFill=1;strokeColor=#828282;elbow=vertical;metaEdit=1;endSize=14;startSize=14;jumpStyle=arc;jumpSize=16;rounded=0;edgeStyle=orthogonalEdgeStyle;entryX=0.5;entryY=1;entryDx=0;entryDy=0;entryPerimeter=0;exitX=0.5;exitY=0;exitDx=0;exitDy=0;exitPerimeter=0;" parent="1" source="ckn-HUOmX8fZDXO7TGun-33" target="ckn-HUOmX8fZDXO7TGun-2" edge="1">
            <mxGeometry x="-0.3913" width="240" relative="1" as="geometry">
              <mxPoint x="-555" y="855" as="sourcePoint" />
              <mxPoint x="-280" y="960" as="targetPoint" />
              <mxPoint as="offset" />
            </mxGeometry>
          </mxCell>
        </object>
        <mxCell id="AaPUc0bWfRbjgrLykp2q-6" value="&lt;span style=&quot;font-weight: 400; text-wrap: nowrap; background-color: rgb(255, 255, 255);&quot;&gt;use-case-specific &lt;br&gt;semantic data files&lt;/span&gt;" style="swimlane;whiteSpace=wrap;html=1;startSize=50;" parent="1" vertex="1">
          <mxGeometry x="-1410" y="420" width="150" height="220" as="geometry">
            <mxRectangle x="-1930" y="1030" width="260" height="50" as="alternateBounds" />
          </mxGeometry>
        </mxCell>
        <mxCell id="ckn-HUOmX8fZDXO7TGun-41" value="system-data.ttl" style="whiteSpace=wrap;html=1;shape=mxgraph.basic.document" parent="AaPUc0bWfRbjgrLykp2q-6" vertex="1">
          <mxGeometry x="30" y="140" width="90" height="70" as="geometry" />
        </mxCell>
        <mxCell id="ckn-HUOmX8fZDXO7TGun-42" value="SENSE.ttl" style="whiteSpace=wrap;html=1;shape=mxgraph.basic.document" parent="AaPUc0bWfRbjgrLykp2q-6" vertex="1">
          <mxGeometry x="30" y="60" width="90" height="70" as="geometry" />
        </mxCell>
        <mxCell id="yuaseLyvO3VkR_NCbtvj-1" value="&lt;span style=&quot;font-weight: 400; text-wrap: nowrap; background-color: rgb(255, 255, 255);&quot;&gt;use-case-specific&lt;/span&gt;&lt;div&gt;&lt;span style=&quot;font-weight: 400; text-wrap: nowrap; background-color: rgb(255, 255, 255);&quot;&gt;module config files&lt;/span&gt;&lt;/div&gt;" style="swimlane;whiteSpace=wrap;html=1;startSize=50;" parent="1" vertex="1">
          <mxGeometry x="-1410" y="680" width="150" height="460" as="geometry">
            <mxRectangle x="-1930" y="1030" width="260" height="50" as="alternateBounds" />
          </mxGeometry>
        </mxCell>
        <mxCell id="yuaseLyvO3VkR_NCbtvj-6" value="data_ingestion.&lt;br&gt;docker.json" style="whiteSpace=wrap;html=1;shape=mxgraph.basic.document" parent="yuaseLyvO3VkR_NCbtvj-1" vertex="1">
          <mxGeometry x="20" y="60" width="110" height="70" as="geometry" />
        </mxCell>
        <mxCell id="yuaseLyvO3VkR_NCbtvj-7" value="knowledgebase.&lt;br&gt;docker.json" style="whiteSpace=wrap;html=1;shape=mxgraph.basic.document" parent="yuaseLyvO3VkR_NCbtvj-1" vertex="1">
          <mxGeometry x="20" y="140" width="110" height="70" as="geometry" />
        </mxCell>
        <mxCell id="BGrdsBrsQeiB8PcxPuRt-1" value="simple_event_&lt;br&gt;detection.&lt;br&gt;docker.json" style="whiteSpace=wrap;html=1;shape=mxgraph.basic.document" parent="yuaseLyvO3VkR_NCbtvj-1" vertex="1">
          <mxGeometry x="20" y="220" width="110" height="70" as="geometry" />
        </mxCell>
        <mxCell id="BGrdsBrsQeiB8PcxPuRt-2" value="semantic_event_&lt;br&gt;log_bridge.&lt;br&gt;docker.json" style="whiteSpace=wrap;html=1;shape=mxgraph.basic.document" parent="yuaseLyvO3VkR_NCbtvj-1" vertex="1">
          <mxGeometry x="20" y="300" width="110" height="70" as="geometry" />
        </mxCell>
        <mxCell id="HC9Z-Mrr86cmzAsPWh-m-1" value="event_to_state_&lt;br&gt;causality.&lt;br&gt;docker.json" style="whiteSpace=wrap;html=1;shape=mxgraph.basic.document" vertex="1" parent="yuaseLyvO3VkR_NCbtvj-1">
          <mxGeometry x="20" y="380" width="110" height="70" as="geometry" />
        </mxCell>
        <object placeholders="1" c4Type="Relationship" c4Technology="SPARQL" c4Description="Trigger State" label="&lt;div style=&quot;text-align: left&quot;&gt;&lt;div style=&quot;text-align: center&quot;&gt;&lt;b&gt;%c4Description%&lt;/b&gt;&lt;/div&gt;&lt;div style=&quot;text-align: center&quot;&gt;[%c4Technology%]&lt;/div&gt;&lt;/div&gt;" id="LrZFDKLHQeC4bC0P2Lax-1">
          <mxCell style="endArrow=blockThin;html=1;fontSize=10;fontColor=#404040;strokeWidth=1;endFill=1;strokeColor=#828282;elbow=vertical;metaEdit=1;endSize=14;startSize=14;jumpStyle=arc;jumpSize=16;rounded=0;edgeStyle=orthogonalEdgeStyle;" parent="1" source="ckn-HUOmX8fZDXO7TGun-29" target="ckn-HUOmX8fZDXO7TGun-1" edge="1">
            <mxGeometry width="240" relative="1" as="geometry">
              <mxPoint x="-655" y="815" as="sourcePoint" />
              <mxPoint x="-380" y="920" as="targetPoint" />
              <Array as="points">
                <mxPoint x="-610" y="890" />
              </Array>
            </mxGeometry>
          </mxCell>
        </object>
        <object placeholders="1" c4Type="Relationship" c4Technology="MQTT" c4Description="Event" label="&lt;div style=&quot;text-align: left&quot;&gt;&lt;div style=&quot;text-align: center&quot;&gt;&lt;b&gt;%c4Description%&lt;/b&gt;&lt;/div&gt;&lt;div style=&quot;text-align: center&quot;&gt;[%c4Technology%]&lt;/div&gt;&lt;/div&gt;" id="LrZFDKLHQeC4bC0P2Lax-3">
          <mxCell style="endArrow=blockThin;html=1;fontSize=10;fontColor=#404040;strokeWidth=1;endFill=1;strokeColor=#828282;elbow=vertical;metaEdit=1;endSize=14;startSize=14;jumpStyle=arc;jumpSize=16;rounded=0;edgeStyle=orthogonalEdgeStyle;" parent="1" source="ckn-HUOmX8fZDXO7TGun-3" target="ckn-HUOmX8fZDXO7TGun-19" edge="1">
            <mxGeometry width="240" relative="1" as="geometry">
              <mxPoint x="-550" y="535" as="sourcePoint" />
              <mxPoint x="-380" y="535" as="targetPoint" />
              <Array as="points">
                <mxPoint x="-680" y="600" />
                <mxPoint x="-200" y="600" />
              </Array>
            </mxGeometry>
          </mxCell>
        </object>
        <mxCell id="LrZFDKLHQeC4bC0P2Lax-4" value="Actor" style="shape=umlActor;verticalLabelPosition=bottom;verticalAlign=top;html=1;outlineConnect=0;" parent="1" vertex="1">
          <mxGeometry x="-280" y="1140" width="30" height="60" as="geometry" />
        </mxCell>
        <object placeholders="1" c4Type="Relationship" c4Technology="Interface" c4Description="Trigger State" label="&lt;div style=&quot;text-align: left&quot;&gt;&lt;div style=&quot;text-align: center&quot;&gt;&lt;b&gt;%c4Description%&lt;/b&gt;&lt;/div&gt;&lt;div style=&quot;text-align: center&quot;&gt;[%c4Technology%]&lt;/div&gt;&lt;/div&gt;" id="LrZFDKLHQeC4bC0P2Lax-6">
          <mxCell style="endArrow=blockThin;html=1;fontSize=10;fontColor=#404040;strokeWidth=1;endFill=1;strokeColor=#828282;elbow=vertical;metaEdit=1;endSize=14;startSize=14;jumpStyle=arc;jumpSize=16;rounded=0;edgeStyle=orthogonalEdgeStyle;" parent="1" source="LrZFDKLHQeC4bC0P2Lax-4" target="ckn-HUOmX8fZDXO7TGun-29" edge="1">
            <mxGeometry x="0.4118" width="240" relative="1" as="geometry">
              <mxPoint x="-380" y="900" as="sourcePoint" />
              <mxPoint x="-600" y="815" as="targetPoint" />
              <Array as="points">
                <mxPoint x="-280" y="1060" />
                <mxPoint x="-280" y="1060" />
              </Array>
              <mxPoint as="offset" />
            </mxGeometry>
          </mxCell>
        </object>
        <object placeholders="1" c4Type="Relationship" c4Technology="Interface" c4Description="Explanation" label="&lt;div style=&quot;text-align: left&quot;&gt;&lt;div style=&quot;text-align: center&quot;&gt;&lt;b&gt;%c4Description%&lt;/b&gt;&lt;/div&gt;&lt;div style=&quot;text-align: center&quot;&gt;[%c4Technology%]&lt;/div&gt;&lt;/div&gt;" id="LrZFDKLHQeC4bC0P2Lax-7">
          <mxCell style="endArrow=blockThin;html=1;fontSize=10;fontColor=#404040;strokeWidth=1;endFill=1;strokeColor=#828282;elbow=vertical;metaEdit=1;endSize=14;startSize=14;jumpStyle=arc;jumpSize=16;rounded=0;edgeStyle=orthogonalEdgeStyle;" parent="1" source="ckn-HUOmX8fZDXO7TGun-29" target="LrZFDKLHQeC4bC0P2Lax-4" edge="1">
            <mxGeometry x="-0.0588" y="5" width="240" relative="1" as="geometry">
              <mxPoint x="-255" y="1150" as="sourcePoint" />
              <mxPoint x="-190" y="1030" as="targetPoint" />
              <Array as="points">
                <mxPoint x="-255" y="1090" />
                <mxPoint x="-255" y="1090" />
              </Array>
              <mxPoint as="offset" />
            </mxGeometry>
          </mxCell>
        </object>
        <object placeholders="1" c4Type="Relationship" c4Technology="file access, volume mount" c4Description="use-case-specific module configurations&#xa;mounted to their corresponding modules" label="&lt;div style=&quot;text-align: left&quot;&gt;&lt;div style=&quot;text-align: center&quot;&gt;&lt;b&gt;%c4Description%&lt;/b&gt;&lt;/div&gt;&lt;div style=&quot;text-align: center&quot;&gt;[%c4Technology%]&lt;/div&gt;&lt;/div&gt;" id="BGrdsBrsQeiB8PcxPuRt-3">
          <mxCell style="endArrow=blockThin;html=1;fontSize=10;fontColor=#404040;strokeWidth=1;endFill=1;strokeColor=#828282;elbow=vertical;metaEdit=1;endSize=14;startSize=14;jumpStyle=arc;jumpSize=16;rounded=0;edgeStyle=orthogonalEdgeStyle;exitX=1;exitY=0.5;exitDx=0;exitDy=0;" parent="1" source="yuaseLyvO3VkR_NCbtvj-1" edge="1">
            <mxGeometry x="0.0385" y="30" width="240" relative="1" as="geometry">
              <mxPoint x="-1270" y="785" as="sourcePoint" />
              <mxPoint x="-1210" y="740" as="targetPoint" />
              <Array as="points">
                <mxPoint x="-1260" y="855" />
                <mxPoint x="-1040" y="855" />
                <mxPoint x="-1040" y="740" />
              </Array>
              <mxPoint as="offset" />
            </mxGeometry>
          </mxCell>
        </object>
      </root>
    </mxGraphModel>
  </diagram>
  <diagram name="Level3-ComponentDiagram" id="py64LwjcIZYRGiZlstD0">
    <mxGraphModel dx="1562" dy="909" grid="1" gridSize="10" guides="1" tooltips="1" connect="1" arrows="1" fold="1" page="1" pageScale="1" pageWidth="827" pageHeight="1169" math="0" shadow="0">
      <root>
        <mxCell id="0" />
        <mxCell id="1" parent="0" />
        <mxCell id="pDWV_kTZPt95jSyMGroc-1" value="Context, Containers, &lt;b&gt;Components&lt;/b&gt;, and Code" style="text;whiteSpace=wrap;html=1;fontSize=20;align=center;" parent="1" vertex="1">
          <mxGeometry x="10" width="810" height="40" as="geometry" />
        </mxCell>
      </root>
    </mxGraphModel>
  </diagram>
  <diagram name="Level4-CodeDiagram" id="Zzk8lmRevCxepKh-kDEk">
    <mxGraphModel dx="1562" dy="909" grid="1" gridSize="10" guides="1" tooltips="1" connect="1" arrows="1" fold="1" page="1" pageScale="1" pageWidth="827" pageHeight="1169" math="0" shadow="0">
      <root>
        <mxCell id="0" />
        <mxCell id="1" parent="0" />
        <mxCell id="WYoNXSJAWadBFaJNBTW2-1" value="Context, Containers, Components, and &lt;b&gt;Code&lt;/b&gt;" style="text;whiteSpace=wrap;html=1;fontSize=20;align=center;" parent="1" vertex="1">
          <mxGeometry x="10" width="810" height="40" as="geometry" />
        </mxCell>
      </root>
    </mxGraphModel>
  </diagram>
</mxfile>
